# xmcd
#
# Track frame offsets: 
#        150
#        27121
#        47950
#        65281
#        87733
#        104953
#        125701
#        145126
#        163749
#        177403
#        218916
#        236869
#
# Disc length: 3420 seconds
#
# Revision: 0
# Processed by: cddbd v1.5.2PL0 Copyright (c) Steve Scherf et al.
# Submitted via: ExactAudioCopy v1.0b1
#
DISCID=bd0d5a0c
DTITLE=周杰伦 - 无与伦比演唱会 Live CD
DYEAR=2005
DGENRE=Pop
TTITLE0=以父之名
TTITLE1=止战之殇
TTITLE2=她的睫毛
TTITLE3=晴天
TTITLE4=你听得到
TTITLE5=梯田+爸我回来了
TTITLE6=园游会
TTITLE7=龙卷风
TTITLE8=将军
TTITLE9=星晴+回到过去+爱我别走
TTITLE10=我的地盘
TTITLE11=爱情悬崖
EXTD=
EXTT0=
EXTT1=
EXTT2=
EXTT3=
EXTT4=
EXTT5=
EXTT6=
EXTT7=
EXTT8=
EXTT9=
EXTT10=
EXTT11=
PLAYORDER=
